<svg xmlns="http://www.w3.org/2000/svg" version="1.0" width="200" height="36" viewBox="0 0 2000 360"
  preserveAspectRatio="xMidYMid meet" style="fill: rgb(255, 81, 0);">
  <g transform="translate(0.000000,360.000000) scale(0.100000,-0.100000)" stroke="none">
    <path
      d="M2528 3331 c-165 -53 -283 -183 -324 -357 -29 -125 -2 -261 76 -375 l41 -60 -47 -60 c-25 -33 -51 -58 -58 -55 -6 3 -45 18 -86 34 -309 122 -660 11 -841 -266 -232 -353 -104 -822 274 -1014 91 -45 194 -68 311 -68 126 0 207 19 316 72 154 76 305 251 351 406 l12 43 56 -7 c31 -3 57 -8 59 -9 2 -2 5 -52 8 -111 20 -525 349 -969 840 -1133 245 -82 533 -82 778 0 307 103 566 327 709 614 91 183 130 352 129 565 -2 584 -407 1071 -992 1196 -118 25 -354 25 -470 0 -466 -100 -823 -428 -947 -871 l-28 -97 -54 6 c-30 4 -56 8 -57 9 -2 1 -8 41 -14 89 -17 143 -72 271 -160 377 l-51 61 46 60 c25 33 48 60 51 60 3 0 33 -9 67 -21 126 -43 293 -22 406 50 290 187 294 617 7 803 -118 76 -280 100 -408 59z m258 -229 c124 -63 176 -220 115 -341 -26 -50 -104 -118 -150 -131 -98 -27 -206 3 -270 75 -46 53 -61 94 -61 169 0 108 66 205 166 242 52 19 148 12 200 -14z m1257 -928 c239 -53 431 -237 494 -475 20 -78 23 -233 4 -309 -7 -30 -31 -93 -53 -140 -33 -68 -57 -101 -122 -166 -138 -137 -272 -194 -461 -194 -191 0 -321 54 -456 189 -71 71 -93 101 -126 171 -64 134 -84 252 -64 379 58 375 419 626 784 545z m-2015 -29 c150 -67 246 -249 213 -403 -34 -159 -153 -276 -309 -303 -159 -28 -328 64 -400 219 -22 48 -27 71 -27 147 0 96 16 146 72 228 92 133 294 183 451 112z">
    </path>
    <path
      d="M14312 2599 c3 -8 43 -92 89 -186 l82 -173 274 0 273 0 0 -518 0 -519 23 -44 c16 -29 40 -54 72 -74 48 -30 51 -30 207 -33 l158 -4 0 598 0 597 435 -5 c240 -3 434 -2 433 2 -2 4 -37 87 -77 184 l-75 176 -511 0 c-282 0 -709 3 -950 7 -376 5 -438 4 -433 -8z">
    </path>
    <path
      d="M6360 2578 c-37 -14 -73 -39 -110 -77 -59 -60 -41 -19 -616 -1374 l-33 -77 236 2 236 3 46 123 46 122 316 0 316 0 23 -62 c16 -43 37 -77 69 -109 67 -68 114 -79 321 -79 l167 0 -234 568 c-128 312 -272 660 -319 775 l-86 207 -162 -1 c-139 0 -169 -3 -216 -21z m213 -662 c53 -145 97 -269 97 -275 0 -8 -58 -11 -185 -11 -141 0 -185 3 -185 13 0 20 164 537 170 537 4 0 50 -119 103 -264z">
    </path>
    <path
      d="M7380 1987 c0 -681 0 -686 65 -784 21 -31 57 -67 88 -88 93 -61 125 -65 564 -65 l393 0 0 189 0 189 -237 4 c-262 3 -281 7 -345 72 -69 68 -68 57 -68 604 l0 492 -230 0 -230 0 0 -613z">
    </path>
    <path
      d="M8060 2420 l0 -180 340 0 340 0 0 -487 0 -488 24 -50 c30 -65 104 -131 169 -150 31 -9 92 -15 159 -15 l108 0 0 595 0 595 770 0 770 0 0 180 0 180 -1340 0 -1340 0 0 -180z">
    </path>
    <path
      d="M10900 2415 l0 -186 434 1 c379 1 438 -1 459 -14 67 -45 68 -142 2 -194 -27 -22 -32 -22 -461 -22 l-434 0 0 -389 c0 -267 4 -399 12 -422 19 -57 49 -90 102 -115 46 -22 64 -24 199 -24 l147 0 0 300 0 300 124 0 124 0 71 -207 c39 -115 86 -250 104 -300 l32 -93 242 0 242 0 -18 43 c-10 23 -69 152 -131 287 -61 135 -114 250 -117 257 -2 6 22 29 55 51 112 77 183 177 212 301 18 76 8 231 -19 301 -61 158 -215 263 -443 300 -36 5 -251 10 -500 10 l-438 0 0 -185z">
    </path>
    <path
      d="M12420 1918 c0 -465 4 -696 11 -723 14 -51 81 -116 136 -133 22 -6 93 -12 157 -12 l116 0 2 431 3 430 307 -404 c246 -321 317 -408 350 -428 40 -22 54 -24 216 -27 l172 -4 0 141 0 141 193 0 193 0 59 -140 59 -140 243 0 c231 0 242 1 235 18 -4 11 -169 359 -367 775 l-360 757 -239 0 c-150 0 -253 -4 -277 -11 -50 -16 -105 -61 -132 -112 -21 -41 -22 -55 -27 -391 l-5 -349 -325 429 -325 429 -198 3 -197 2 0 -682z m1599 5 c66 -155 121 -284 121 -287 0 -3 -56 -6 -125 -6 l-125 0 0 292 c0 160 2 289 4 287 2 -2 58 -131 125 -286z">
    </path>
    <path
      d="M16363 2588 c191 -507 516 -1346 535 -1381 29 -55 78 -97 149 -130 44 -20 66 -22 264 -25 l215 -4 46 124 46 123 317 0 318 0 21 -60 c14 -41 36 -75 67 -107 68 -68 114 -79 320 -76 l165 3 -272 660 c-150 363 -293 711 -319 773 l-47 113 -262 -3 c-248 -3 -263 -4 -303 -25 -88 -48 -94 -60 -265 -574 -131 -393 -159 -469 -166 -448 -5 13 -85 255 -178 536 l-169 513 -244 0 c-190 0 -242 -3 -238 -12z m1580 -956 c-102 -1 -188 -1 -190 1 -4 4 172 480 184 500 3 5 47 -105 98 -244 l93 -254 -185 -3z">
    </path>
    <path d="M15800 1545 l0 -495 230 0 230 0 0 495 0 495 -230 0 -230 0 0 -495z"></path>
    <path
      d="M9450 1632 c0 -429 3 -452 67 -514 70 -69 62 -68 674 -68 l549 0 0 175 0 175 -415 0 -415 0 0 125 0 125 370 0 370 0 0 180 0 180 -600 0 -600 0 0 -378z">
    </path>
  </g>
</svg>