<svg xmlns="http://www.w3.org/2000/svg" version="1.0" width="63" height="36" viewBox="0 0 630 360"
  preserveAspectRatio="xMidYMid meet" style="fill: rgb(255, 81, 0);">
  <g transform="translate(0.000000,360.000000) scale(0.100000,-0.100000)" stroke="none">
    <path
      d="M2528 3331 c-165 -53 -283 -183 -324 -357 -29 -125 -2 -261 76 -375 l41 -60 -47 -60 c-25 -33 -51 -58 -58 -55 -6 3 -45 18 -86 34 -309 122 -660 11 -841 -266 -232 -353 -104 -822 274 -1014 91 -45 194 -68 311 -68 126 0 207 19 316 72 154 76 305 251 351 406 l12 43 56 -7 c31 -3 57 -8 59 -9 2 -2 5 -52 8 -111 20 -525 349 -969 840 -1133 245 -82 533 -82 778 0 307 103 566 327 709 614 91 183 130 352 129 565 -2 584 -407 1071 -992 1196 -118 25 -354 25 -470 0 -466 -100 -823 -428 -947 -871 l-28 -97 -54 6 c-30 4 -56 8 -57 9 -2 1 -8 41 -14 89 -17 143 -72 271 -160 377 l-51 61 46 60 c25 33 48 60 51 60 3 0 33 -9 67 -21 126 -43 293 -22 406 50 290 187 294 617 7 803 -118 76 -280 100 -408 59z m258 -229 c124 -63 176 -220 115 -341 -26 -50 -104 -118 -150 -131 -98 -27 -206 3 -270 75 -46 53 -61 94 -61 169 0 108 66 205 166 242 52 19 148 12 200 -14z m1257 -928 c239 -53 431 -237 494 -475 20 -78 23 -233 4 -309 -7 -30 -31 -93 -53 -140 -33 -68 -57 -101 -122 -166 -138 -137 -272 -194 -461 -194 -191 0 -321 54 -456 189 -71 71 -93 101 -126 171 -64 134 -84 252 -64 379 58 375 419 626 784 545z m-2015 -29 c150 -67 246 -249 213 -403 -34 -159 -153 -276 -309 -303 -159 -28 -328 64 -400 219 -22 48 -27 71 -27 147 0 96 16 146 72 228 92 133 294 183 451 112z">
    </path>
  </g>
</svg>
